#!OML:ASF H:\LiuWeirdWalks\Patient Classification 1\Patient 1\Session 1\male.ASF
:FULLY-SPECIFIED
:DEGREES
1013
root 1.55441 17.9187 10.2163 8.96563 10.7565 2.99025
lowerback 12.9022 -1.43332 -5.75238
upperback 3.10748 -2.61323 0.351898
thorax -3.67514 -1.24618 4.02194
lowerneck -26.3721 0.00292762 5.16909
upperneck 29.4834 -1.66036 -1.75792
head 14.533 -0.361283 -1.92487
rclavicle 6.28657e-015 3.762e-014
rhumerus -31.0621 -26.6962 -11.6269
rradius 34.2076
rwrist -8.03737
rhand -20.0265 -6.48382
rfingers 7.12502
rthumb 6.31427 -36.3697
lclavicle 6.28657e-015 3.762e-014
lhumerus -23.5498 29.5422 31.4991
lradius 40.58
lwrist 2.10034
lhand -18.9272 0.364971
lfingers 7.12502
lthumb 7.3754 30.2164
rfemur -37.2919 -3.55208 11.2325
rtibia 25.2289
rfoot -8.16957 -18.367
rtoes -11.729
lfemur 6.77984 -6.13926 -19.5866
ltibia 19.6203
lfoot -4.84984 -6.68019
ltoes -30.1239
1014
root 1.5395 17.8798 10.3698 8.918 11.154 3.268
lowerback 12.7571 -1.50081 -5.60981
upperback 3.0134 -2.66902 0.558389
thorax -3.68539 -1.27263 4.1634
lowerneck -26.2227 -0.118516 5.01332
upperneck 29.529 -1.6664 -2.0181
head 14.5169 -0.420105 -2.00605
rclavicle -1.87603e-015 1.40143e-014
rhumerus -31.5014 -26.6944 -11.444
rradius 34.179
rwrist -8.02248
rhand -20.0202 -6.52538
rfingers 7.12502
rthumb 6.32033 -36.4111
lclavicle -1.87603e-015 1.40143e-014
lhumerus -23.4244 29.3532 31.2112
lradius 40.6738
lwrist 2.22661
lhand -18.9605 0.386927
lfingers 7.12502
lthumb 7.34323 30.2395
rfemur -37.1549 -3.41293 10.914
rtibia 25.5935
rfoot -7.45276 -18.2997
rtoes -11.6762
lfemur 7.34372 -6.33912 -19.654
ltibia 19.5612
lfoot -4.47864 -7.07532
ltoes -30.1038
1015
root 1.52439 17.8396 10.5247 8.85702 11.5378 3.54034
lowerback 12.6374 -1.52892 -5.43652
upperback 2.94226 -2.66914 0.781135
thorax -3.69202 -1.27237 4.29689
lowerneck -26.1868 -0.274782 4.77043
upperneck 29.5675 -1.6971 -2.26339
head 14.5215 -0.497114 -2.07228
rclavicle 4.96962e-017 -1.92821e-014
rhumerus -32.0146 -26.8297 -11.1275
rradius 34.1292
rwrist -7.96305
rhand -20.0325 -6.51821
rfingers 7.12502
rthumb 6.30842 -36.4043
lclavicle 4.96962e-017 -1.92821e-014
lhumerus -23.183 29.2242 31.0582
lradius 40.7614
lwrist 2.29744
lhand -18.9869 0.399053
lfingers 7.12502
lthumb 7.31777 30.2525
rfemur -37.0579 -3.32842 10.6278
rtibia 26.2724
rfoot -6.35776 -18.0455
rtoes -11.5402
lfemur 7.86251 -6.52872 -19.7041
ltibia 19.6033
lfoot -4.06614 -7.50389
ltoes -30.1049
1016
root 1.51007 17.7999 10.6804 8.77437 11.8926 3.79436
lowerback 12.5454 -1.5229 -5.21242
upperback 2.84638 -2.62004 1.00821
thorax -3.74767 -1.24601 4.40108
lowerneck -26.1145 -0.471207 4.44278
upperneck 29.6217 -1.76132 -2.46802
head 14.5254 -0.591773 -2.11378
rclavicle -1.25234e-014 7.95139e-015
rhumerus -32.6366 -26.9003 -10.7211
rradius 34.1142
rwrist -7.95299
rhand -20.0723 -6.48019
rfingers 7.12502
rthumb 6.27 -36.3674
lclavicle -1.25234e-014 7.95139e-015
lhumerus -22.9223 29.056 30.9721
lradius 40.8598
lwrist 2.3188
lhand -19.0292 0.3735
lfingers 7.12502
lthumb 7.27692 30.2284
rfemur -37.015 -3.27707 10.3717
rtibia 27.2187
rfoot -4.86795 -17.6344
rtoes -11.0943
lfemur 8.34296 -6.70763 -19.7337
ltibia 19.7427
lfoot -3.59933 -7.95396
ltoes -30.1939
1017
root 1.49641 17.762 10.8363 8.66554 12.1941 3.97784
lowerback 12.4795 -1.4933 -4.91377
upperback 2.77465 -2.53011 1.25156
thorax -3.79936 -1.20072 4.47478
lowerneck -26.1424 -0.657962 4.11272
upperneck 29.6702 -1.80913 -2.69137
head 14.5491 -0.682699 -2.16072
rclavicle 1.31198e-014 2.3059e-014
rhumerus -33.2666 -27.0613 -10.2972
rradius 34.0939
rwrist -7.94013
rhand -20.1543 -6.4237
rfingers 7.12502
rthumb 6.19087 -36.3132
lclavicle 1.31198e-014 2.3059e-014
lhumerus -22.6347 28.9607 30.93
lradius 40.9793
lwrist 2.32704
lhand -19.0978 0.412668
lfingers 7.12502
lthumb 7.21078 30.2698
rfemur -37.0539 -3.19411 10.1877
rtibia 28.3711
rfoot -3.0954 -17.1595
rtoes -10.1971
lfemur 8.76295 -6.85636 -19.69
ltibia 19.9981
lfoot -3.06443 -8.42538
ltoes -30.3476
1018
root 1.48461 17.7263 10.9923 8.52081 12.4219 4.0771
lowerback 12.428 -1.45212 -4.5347
upperback 2.69848 -2.41484 1.50365
thorax -3.86939 -1.14305 4.50911
lowerneck -26.1412 -0.826783 3.80261
upperneck 29.6945 -1.8302 -2.93646
head 14.5571 -0.76389 -2.2138
rclavicle 1.94809e-014 -2.42517e-014
rhumerus -33.8756 -27.1918 -9.9231
rradius 34.0963
rwrist -7.98501
rhand -20.2735 -6.38976
rfingers 7.12502
rthumb 6.07582 -36.2826
lclavicle 1.94809e-014 -2.42517e-014
lhumerus -22.4262 28.8738 30.8496
lradius 41.1279
lwrist 2.31987
lhand -19.1868 0.415325
lfingers 7.12502
lthumb 7.12483 30.2754
rfemur -37.1797 -3.1104 10.1165
rtibia 29.6752
rfoot -1.24991 -16.671
rtoes -8.82765
lfemur 9.12552 -6.96806 -19.5731
ltibia 20.3869
lfoot -2.44977 -8.90137
ltoes -30.5631
